# xmcd
#
# Track frame offsets:
#	150
#	15536
#	35960
#	52373
#	76548
#	98692
#	121027
#	144166
#	164258
#	184673
#	208557
#	232829
#	257898
#	281075
#	303260
#
# Disc length: 4323 seconds
# Revision: 0
# Processed by: cddbd v1.5.2PL0 Copyright (c) Steve Scherf et al.
# Submitted via: dBpowerAMP V12.0
#
DISCID=c110e10f
DTITLE=Slave - The Definitive Groove Collection
DYEAR=2006
DGENRE=R&B
TTITLE0=Snap Shot (Single Edit)
TTITLE1=Feel My Love
TTITLE2=Wait For Me (Single Edit)
TTITLE3=Steal Your Heart
TTITLE4=Party Lites
TTITLE5=Spice of Life (Oh Yes, You're the Best)
TTITLE6=For the Love of U
TTITLE7=Way Out
TTITLE8=I'll Be Gone
TTITLE9=Nobody Can Be You
TTITLE10=Weak At The Knees
TTITLE11=You Meet My Approval
TTITLE12=Feel So Real
TTITLE13=Dancin' In The Key Of Life
TTITLE14=Homeboy
EXTD=
EXTT0=
EXTT1=
EXTT2=
EXTT3=
EXTT4=
EXTT5=
EXTT6=
EXTT7=
EXTT8=
EXTT9=
EXTT10=
EXTT11=
EXTT12=
EXTT13=
EXTT14=
PLAYORDER=
